HIERARCHY
ROOT Hips
{
	OFFSET 0.000000 0.000000 0.000000
	CHANNELS 6 Xposition Yposition Zposition Xrotation Yrotation Zrotation
	JOINT LeftUpLeg_virtual
	{
		OFFSET 0.000000 0.000000 0.000000
		CHANNELS 3 Xrotation Yrotation Zrotation
		JOINT LeftUpLeg
		{
			OFFSET 13.026900 -6.336304 -1.092800
			CHANNELS 3 Xrotation Yrotation Zrotation
			JOINT LeftLeg
			{
				OFFSET 0.524474 -46.096886 9.782700
				CHANNELS 3 Xrotation Yrotation Zrotation
				JOINT LeftFoot
				{
					OFFSET -0.524474 -53.427422 -12.948200
					CHANNELS 3 Xrotation Yrotation Zrotation
					JOINT LeftToeBase
					{
						OFFSET 0.192200 -14.009700 16.364100
						CHANNELS 3 Xrotation Yrotation Zrotation
						JOINT LeftToe_End
						{
							OFFSET -1.784700 -0.561700 9.474800
							CHANNELS 3 Xrotation Yrotation Zrotation
							End Site
							{
								OFFSET 0 0 0
							}
						}
					}
				}
			}
		}
	}
	JOINT RightUpLeg_virtual
	{
		OFFSET 0.000000 0.000000 0.000000
		CHANNELS 3 Xrotation Yrotation Zrotation
		JOINT RightUpLeg
		{
			OFFSET -12.883000 -6.336304 -1.092800
			CHANNELS 3 Xrotation Yrotation Zrotation
			JOINT RightLeg
			{
				OFFSET -0.524587 -46.096825 9.782800
				CHANNELS 3 Xrotation Yrotation Zrotation
				JOINT RightFoot
				{
					OFFSET 0.524587 -53.427383 -12.948300
					CHANNELS 3 Xrotation Yrotation Zrotation
					JOINT RightToeBase
					{
						OFFSET -0.192200 -14.009700 16.364100
						CHANNELS 3 Xrotation Yrotation Zrotation
						JOINT RightToe_End
						{
							OFFSET 1.784700 -0.561700 9.474800
							CHANNELS 3 Xrotation Yrotation Zrotation
							End Site
							{
								OFFSET 0 0 0
							}
						}
					}
				}
			}
		}
	}
	JOINT Spine_virtual
	{
		OFFSET 0.000000 0.000000 0.000000
		CHANNELS 3 Xrotation Yrotation Zrotation
		JOINT Spine
		{
			OFFSET 0.072000 7.257294 -0.789700
			CHANNELS 3 Xrotation Yrotation Zrotation
			JOINT Spine1
			{
				OFFSET 0.000000 12.508769 -0.658067
				CHANNELS 3 Xrotation Yrotation Zrotation
				JOINT Spine1_split
				{
					OFFSET 0.000000 12.508769 -0.658067
					CHANNELS 3 Xrotation Yrotation Zrotation
					JOINT Spine2
					{
						OFFSET 0.000000 12.508769 -0.658067
						CHANNELS 3 Xrotation Yrotation Zrotation
						JOINT Neck_virtual
						{
							OFFSET 0.000000 0.000000 0.000000
							CHANNELS 3 Xrotation Yrotation Zrotation
							JOINT Neck
							{
								OFFSET 0.000000 14.033295 7.520400
								CHANNELS 3 Xrotation Yrotation Zrotation
								JOINT Head
								{
									OFFSET 0.000000 8.198502 5.703100
									CHANNELS 3 Xrotation Yrotation Zrotation
									JOINT HeadTop_End
									{
										OFFSET 0.000000 17.760803 13.332701
										CHANNELS 3 Xrotation Yrotation Zrotation
										End Site
										{
											OFFSET 0 0 0
										}
									}
								}
							}
						}
						JOINT LeftShoulder_virtual
						{
							OFFSET 0.000000 0.000000 0.000000
							CHANNELS 3 Xrotation Yrotation Zrotation
							JOINT LeftShoulder
							{
								OFFSET 6.292450 5.785301 -0.669000
								CHANNELS 3 Xrotation Yrotation Zrotation
								JOINT LeftShoulder_split
								{
									OFFSET 6.292450 5.785301 -0.669000
									CHANNELS 3 Xrotation Yrotation Zrotation
									JOINT LeftArm
									{
										OFFSET 13.907140 -6.093903 1.965100
										CHANNELS 3 Xrotation Yrotation Zrotation
										JOINT LeftForeArm
										{
											OFFSET 34.140198 0.000000 0.000000
											CHANNELS 3 Xrotation Yrotation Zrotation
											JOINT LeftHand
											{
												OFFSET 40.960209 0.000000 0.000000
												CHANNELS 3 Xrotation Yrotation Zrotation
												End Site
												{
													OFFSET 0 0 0
												}
											}
										}
									}
								}
							}
						}
						JOINT RightShoulder_virtual
						{
							OFFSET 0.000000 0.000000 0.000000
							CHANNELS 3 Xrotation Yrotation Zrotation
							JOINT RightShoulder
							{
								OFFSET -6.292450 5.785301 -0.669000
								CHANNELS 3 Xrotation Yrotation Zrotation
								JOINT RightShoulder_split
								{
									OFFSET -6.292450 5.785301 -0.669000
									CHANNELS 3 Xrotation Yrotation Zrotation
									JOINT RightArm
									{
										OFFSET -13.907140 -6.093903 1.965100
										CHANNELS 3 Xrotation Yrotation Zrotation
										JOINT RightForeArm
										{
											OFFSET -34.140198 0.000000 0.000000
											CHANNELS 3 Xrotation Yrotation Zrotation
											JOINT RightHand
											{
												OFFSET -40.960209 0.000000 0.000000
												CHANNELS 3 Xrotation Yrotation Zrotation
												End Site
												{
													OFFSET 0 0 0
												}
											}
										}
									}
								}
							}
						}
					}
				}
			}
		}
	}
}
MOTION
Frames: 4
Frame Time: 0.03333333
1.247785 115.448212 -1.733158 0.000000 0.000000 0.000000 -3.057451 5.529833 -2.159706 -9.086228 9.564553 12.917840 15.758189 -3.734826 -0.019808 -5.967127 2.381715 -7.391976 1.239198 0.277807 -1.784120 0.000000 0.000000 0.000000 -2.698068 6.190964 -2.329743 -13.208593 -3.719406 -2.840065 13.808551 3.288395 -0.308748 1.302464 0.418541 -1.770919 -0.912297 -0.039559 0.485360 0.000000 0.000000 0.000000 -3.186222 8.604126 -2.323197 8.372621 -0.861531 1.397255 2.565139 0.224801 -0.420644 0.091435 -1.685537 0.990806 0.000000 0.000000 0.000000 -3.889777 -0.005659 0.267501 -0.180409 0.679047 0.139087 4.375343 -2.091366 -1.171492 0.000000 0.000000 0.000000 -4.005482 -0.316750 0.314540 0.601763 -2.518094 -7.411273 -2.331782 -2.514151 0.601749 5.269620 -3.240733 -72.846727 5.075758 -12.144229 1.515093 0.000000 0.000000 0.000000 -4.602060 -0.669828 0.291108 0.483154 7.931667 6.070325 -4.087784 -1.669130 -0.363033 4.668189 13.265701 74.542034 17.762354 18.779803 -3.604769 0.000000 0.000000 0.000000 
1.270497 115.562744 -1.565880 0.000000 0.000000 0.000000 -2.888027 5.355582 -2.190440 -9.048239 9.541165 13.049166 15.405367 -3.577487 -0.110903 -6.205089 2.216095 -7.198412 1.437714 0.272059 -1.776580 0.000000 0.000000 0.000000 -2.636970 5.881503 -2.329188 -13.181085 -3.587226 -2.746908 13.954379 3.343077 -0.337593 1.192883 0.566621 -1.977207 -0.621392 -0.063000 0.529420 0.000000 0.000000 0.000000 -2.773946 8.508742 -2.333453 8.486911 -0.814191 1.429299 2.583335 0.167301 -0.445891 0.405477 -2.053231 0.978892 0.000000 0.000000 0.000000 -3.887748 -0.015966 0.248091 -0.165430 0.814285 0.047913 4.517229 -2.258299 -1.064783 0.000000 0.000000 0.000000 -3.991446 -0.361760 0.293538 0.638845 -2.748763 -7.525636 -2.163090 -2.482059 0.827060 5.049209 -3.127303 -72.979253 5.043811 -12.261396 1.460218 0.000000 0.000000 0.000000 -4.599539 -0.680170 0.312766 0.522513 7.922546 6.177816 -4.033661 -1.697139 -0.522334 4.772338 13.113519 74.496784 17.753770 18.996850 -3.637469 0.000000 0.000000 0.000000 
1.259723 115.623184 -1.403210 0.000000 0.000000 0.000000 -2.755626 5.058097 -2.246675 -9.058678 9.551639 13.273317 15.104163 -3.359568 -0.071395 -6.373556 1.933366 -7.232762 1.584580 0.249187 -1.698109 0.000000 0.000000 0.000000 -2.550524 5.570410 -2.380145 -13.410650 -3.443066 -2.603968 14.276327 3.440111 -0.347026 1.132272 0.758898 -2.240684 -0.448181 -0.080946 0.513103 0.000000 0.000000 0.000000 -2.389783 8.208489 -2.343354 8.794098 -0.751722 1.513739 2.516793 0.114698 -0.458596 0.558984 -2.261614 0.866178 0.000000 0.000000 0.000000 -3.898687 -0.038112 0.242332 -0.083655 1.027704 -0.043276 4.539851 -2.371225 -1.058006 0.000000 0.000000 0.000000 -4.017169 -0.416225 0.291097 0.671100 -3.098231 -7.667741 -1.953671 -2.365714 1.110011 4.821660 -2.950943 -73.049358 5.128641 -12.317923 1.344087 0.000000 0.000000 0.000000 -4.639762 -0.709691 0.337364 0.547774 7.820847 6.443048 -3.997583 -1.646193 -0.733235 5.033843 13.301021 74.140194 17.676782 19.265450 -3.638059 0.000000 0.000000 0.000000 
1.215544 115.584145 -1.231018 0.000000 0.000000 0.000000 -2.673102 4.760031 -2.298226 -9.012731 9.549421 13.507528 14.926438 -3.135936 0.066281 -6.459006 1.572035 -7.504074 1.594770 0.213173 -1.539957 0.000000 0.000000 0.000000 -2.460698 5.243607 -2.439936 -13.902525 -3.372019 -2.466563 14.761258 3.590680 -0.317228 1.216099 0.981997 -2.482297 -0.491811 -0.094807 0.444719 0.000000 0.000000 0.000000 -2.097331 7.697910 -2.321818 9.220416 -0.690162 1.595365 2.358165 0.066670 -0.441663 0.505876 -2.296836 0.747559 0.000000 0.000000 0.000000 -3.907847 -0.068512 0.259999 0.062553 1.284247 -0.123550 4.433159 -2.448904 -1.122423 0.000000 0.000000 0.000000 -4.079325 -0.474554 0.319011 0.702970 -3.475382 -7.814705 -1.919021 -2.158592 1.260544 4.608811 -2.756420 -73.033717 5.336759 -12.270196 1.188240 0.000000 0.000000 0.000000 -4.724280 -0.757024 0.375581 0.564349 7.633985 6.818915 -4.001760 -1.570322 -0.997962 5.419727 13.805714 73.518872 17.525519 19.546231 -3.604314 0.000000 0.000000 0.000000 
